HIERARCHY
ROOT Hips
{
	OFFSET -0.179506 -22.333345 2.821913
	CHANNELS 6 Xposition Yposition Zposition Zrotation Yrotation Xrotation 
	JOINT LeftUpLeg
	{
		OFFSET 6.951974 -9.140623 -0.681533
		CHANNELS 3 Zrotation Yrotation Xrotation
		JOINT LeftLeg
		{
			OFFSET 3.427654 -37.519855 -0.449580
			CHANNELS 3 Zrotation Yrotation Xrotation
			JOINT LeftFoot
			{
				OFFSET -1.359570 -39.796059 -4.369333
				CHANNELS 3 Zrotation Yrotation Xrotation
				JOINT LeftToe
				{
					OFFSET 2.635814 -5.579078 11.928840
					CHANNELS 3 Zrotation Yrotation Xrotation
					End Site
					{
						OFFSET 0.000000 0.000000 0.000000
					}
				}
			}
		}
	}
	JOINT RightUpLeg
	{
		OFFSET -6.767048 -9.052170 -0.431982
		CHANNELS 3 Zrotation Yrotation Xrotation
		JOINT RightLeg
		{
			OFFSET -3.829005 -38.256897 -0.885003
			CHANNELS 3 Zrotation Yrotation Xrotation
			JOINT RightFoot
			{
				OFFSET 1.577377 -39.841461 -4.231180
				CHANNELS 3 Zrotation Yrotation Xrotation
				JOINT RightToe
				{
					OFFSET -2.537174 -4.814398 12.334795
					CHANNELS 3 Zrotation Yrotation Xrotation
					End Site
					{
						OFFSET 0.000000 0.000000 0.000000
					}
				}
			}
		}
	}
	JOINT Spine
	{
		OFFSET -0.253288 10.896323 -2.669631
		CHANNELS 3 Zrotation Yrotation Xrotation
		JOINT Spine1
		{
			OFFSET 0.548704 13.518043 0.109247
			CHANNELS 3 Zrotation Yrotation Xrotation
			JOINT Spine2
			{
				OFFSET 0.145701 5.292222 2.542457
				CHANNELS 3 Zrotation Yrotation Xrotation
				JOINT Neck
				{
					OFFSET -0.277840 21.387037 -4.285703
					CHANNELS 3 Zrotation Yrotation Xrotation
					JOINT Head
					{
						OFFSET 0.515184 6.496960 5.134897
						CHANNELS 3 Zrotation Yrotation Xrotation
						End Site
						{
							OFFSET 0.000000 0.000000 0.000000
						}
					}
				}
				JOINT LeftShoulder
				{
					OFFSET 7.884473 12.174932 -3.408961
					CHANNELS 3 Zrotation Yrotation Xrotation
					JOINT LeftArm
					{
						OFFSET 9.097692 3.046888 -0.886815
						CHANNELS 3 Zrotation Yrotation Xrotation
						JOINT LeftForeArm
						{
							OFFSET 25.961220 -1.277207 -2.745643
							CHANNELS 3 Zrotation Yrotation Xrotation
							JOINT LeftHand
							{
								OFFSET 24.923361 0.898606 -0.117091
								CHANNELS 3 Zrotation Yrotation Xrotation
								End Site
								{
									OFFSET 0.000000 0.000000 0.000000
								}
							}
						}
					}
				}
				JOINT RightShoulder
				{
					OFFSET -8.175920 11.883285 -3.861528
					CHANNELS 3 Zrotation Yrotation Xrotation
					JOINT RightArm
					{
						OFFSET -9.601238 3.255117 -0.914307
						CHANNELS 3 Zrotation Yrotation Xrotation
						JOINT RightForeArm
						{
							OFFSET -25.374195 -1.332924 -2.140099
							CHANNELS 3 Zrotation Yrotation Xrotation
							JOINT RightHand
							{
								OFFSET -25.529810 0.777228 -0.555919
								CHANNELS 3 Zrotation Yrotation Xrotation
								End Site
								{
									OFFSET 0.000000 0.000000 0.000000
								}
							}
						}
					}
				}
			}
		}
	}
}
MOTION
Frames: 12
Frame Time: 0.033333
-30.307400 108.952095 88.560333 -120.924478 1.972550 87.724834 14.992866 8.635435 -0.916862 -3.119365 8.866798 25.052823 1.593690 14.087404 -28.036730 nan nan nan -14.951846 -9.952331 -16.687194 3.067415 -11.601375 17.764527 7.206094 -2.038607 -3.093051 nan nan nan -5.773792 0.829864 -0.211811 7.050497 -4.478946 10.196261 0.426957 0.303666 -4.764409 3.431363 -15.110337 12.671145 2.777384 -19.204200 14.021788 -12.990707 -10.778535 2.775584 -59.393158 -45.270088 26.169714 151.717634 -64.962294 -117.502625 9.462027 -19.747703 -0.688078 18.965609 7.382418 -1.272656 41.550934 18.742091 -4.427128 -124.109215 52.081370 -98.538352 -8.483283 12.414579 -0.053781 
-30.281748 108.943466 88.607765 -120.930720 1.947495 87.818602 14.926253 8.605984 -1.115879 -3.086455 8.869754 25.299085 1.636606 14.064245 -28.209982 nan nan nan -14.934632 -9.894291 -16.926211 2.987214 -11.693174 17.998939 7.083433 -1.995769 -3.267824 nan nan nan -5.810704 0.846334 -0.267814 7.076375 -4.464863 10.189620 0.415806 0.276820 -4.917925 3.370134 -15.131330 12.946374 2.846360 -19.224127 13.938029 -13.117641 -10.678544 2.788562 -59.531461 -45.182953 26.367196 151.770224 -64.960240 -117.432894 9.337894 -19.793506 -0.658135 18.956021 7.270708 -1.268574 41.681054 18.585786 -4.221806 -124.207169 52.011154 -98.497935 -8.552768 12.501031 -0.430517 
-30.270796 108.972656 88.645737 -120.982719 2.004187 87.829059 15.008886 8.555306 -1.120827 -2.791441 9.534125 25.482967 1.426832 13.296138 -28.396187 nan nan nan -14.943396 -9.594195 -16.957763 2.808236 -12.421226 18.122221 7.096522 -1.379475 -3.303660 nan nan nan -5.824178 0.922023 -0.341935 7.134192 -4.353897 10.279456 0.614978 0.131883 -5.076678 3.545436 -14.785610 13.317103 2.658952 -19.762418 13.438399 -12.804931 -10.458678 2.522694 -65.533275 -43.866632 29.414186 148.557701 -63.637223 -114.352008 4.239951 -21.493685 -2.402911 18.325217 7.257193 -1.397461 42.756215 18.407760 -3.566309 -124.298503 50.833759 -99.289808 -4.898960 13.325440 -3.026529 
-30.250612 108.982208 88.665337 -121.041110 2.005577 87.855659 14.997426 8.579164 -1.140508 -2.742589 9.632356 25.533871 1.466832 13.266140 -28.415001 nan nan nan -14.948914 -9.574045 -17.054990 2.808517 -12.435565 18.210004 7.121872 -1.307070 -3.350350 nan nan nan -5.791282 0.885407 -0.344332 7.129231 -4.356909 10.175429 0.603815 0.106592 -5.002841 3.508326 -14.682341 13.424356 2.637387 -19.725887 13.404698 -12.644744 -10.456583 2.431341 -65.868270 -43.730491 29.561038 148.560307 -63.577818 -114.119557 4.220185 -21.462892 -2.463366 18.235272 7.240762 -1.345924 42.987462 18.562218 -3.486939 -124.412795 50.806729 -99.227973 -4.946471 13.286456 -3.091664 
-30.227100 108.946045 88.639992 -121.051389 1.795316 87.829637 14.767196 8.365499 -1.045848 -2.549732 10.277050 25.506421 1.408483 12.807069 -28.540265 nan nan nan -15.258378 -9.585651 -17.134414 2.656021 -12.873805 18.507602 7.297741 -0.604883 -3.549323 nan nan nan -5.573021 0.622239 -0.169051 6.978480 -3.974272 9.875290 -0.082829 0.515441 -4.917591 3.574640 -15.099152 13.100928 2.552077 -20.075899 14.095622 -13.297375 -7.180159 2.299197 -69.440015 -45.900424 33.278100 146.289220 -65.264548 -114.765567 1.761291 -22.586900 -3.428359 18.510922 5.336180 -0.875764 43.719860 20.438248 -2.723733 -124.218767 50.739355 -99.583376 -3.986513 13.394159 -2.740152 
-30.230677 108.973564 88.680145 -121.120072 1.857368 87.710159 14.934428 8.601508 -0.881757 -2.780241 10.016473 25.529770 1.107024 12.757571 -28.421567 nan nan nan -15.157525 -9.474798 -16.997831 2.564318 -12.462239 18.802679 6.991041 -0.490236 -4.157790 nan nan nan -6.348784 1.029270 0.241941 7.581764 -4.019949 9.658246 0.588099 0.507713 -4.792856 3.941325 -15.807169 13.271739 3.836823 -20.412033 12.996762 -12.831833 -7.250300 2.672716 -70.963696 -46.516335 33.570209 145.903326 -64.578496 -116.651818 -1.900140 -22.026478 -7.782402 17.969478 5.294857 -1.256624 43.623012 20.017264 -3.525848 -125.085536 50.421174 -102.156568 -0.872602 13.334049 -4.234492 
-30.238544 109.004555 88.713432 -121.200569 2.005627 87.727710 15.110617 8.835002 -0.912966 -2.854455 9.737176 25.604337 1.098090 12.828767 -28.352752 nan nan nan -14.908782 -9.336732 -16.946111 2.633296 -12.085520 18.642143 7.035177 -0.911273 -4.283157 nan nan nan -6.519766 1.105588 0.251534 7.704057 -4.212804 9.543313 1.068268 0.385954 -4.702840 3.910070 -15.461579 13.498649 3.789470 -20.352086 12.578114 -12.087301 -9.242245 2.367139 -69.516062 -44.768645 31.662583 146.897506 -63.285353 -115.926469 -1.505131 -21.333926 -8.425574 17.638859 6.403726 -1.500809 43.418357 18.931893 -3.982720 -125.373789 50.324627 -101.998696 -0.867539 13.240891 -4.515350 
-30.229071 109.016754 88.717209 -121.256732 2.010705 87.725899 15.109479 8.894340 -0.907545 -2.806074 9.726918 25.612606 1.178601 12.802996 -28.364748 nan nan nan -14.886794 -9.315474 -16.945889 2.635309 -12.052791 18.605391 7.002808 -1.022515 -4.282851 nan nan nan -6.530083 1.121627 0.241372 7.681066 -4.257987 9.686067 1.131814 0.311564 -4.808394 4.028604 -15.295886 13.452868 3.668486 -20.382164 12.577954 -11.875829 -9.677302 2.191292 -69.195331 -44.204618 31.180966 147.295657 -62.826550 -115.526312 -1.660437 -21.022391 -8.028558 17.546959 6.672156 -1.475766 43.528801 18.754317 -3.904945 -125.552632 50.209428 -101.897798 -0.898076 13.218538 -4.712417 
-30.214447 109.030113 88.716133 -121.289852 1.963101 87.714479 15.078985 8.868532 -0.894879 -2.794580 9.815938 25.632437 1.204405 12.755443 -28.361469 nan nan nan -14.967716 -9.346968 -16.945325 2.662495 -12.114184 18.612493 6.966630 -0.920687 -4.243897 nan nan nan -6.493326 1.226784 0.177819 7.627149 -4.183327 9.868981 1.015486 0.231489 -4.900577 4.237003 -15.337976 13.338838 3.552444 -20.486436 12.698928 -11.935368 -9.206346 2.130907 -69.604705 -44.461375 31.605260 147.357463 -63.103626 -115.606602 -1.970886 -20.999994 -7.632433 17.576568 6.386734 -1.479952 43.802356 18.951917 -3.563422 -125.648243 50.150729 -102.108777 -0.827702 13.297969 -5.247998 
-30.202202 109.038765 88.725616 -121.280339 1.956787 87.684817 15.079281 8.827270 -0.885072 -2.862805 9.746354 25.630058 1.184336 12.896382 -28.336060 nan nan nan -14.994644 -9.406885 -16.913915 2.708545 -12.086525 18.564871 7.041309 -0.909191 -4.249169 nan nan nan -6.507865 1.319252 0.228631 7.644704 -4.088539 9.591092 0.989510 0.231259 -4.603181 4.288361 -15.617108 13.269305 3.548839 -20.399109 12.772432 -12.159767 -8.756373 2.273569 -69.941511 -44.946097 32.053348 147.750916 -63.725931 -116.306753 0.803597 -21.511235 -8.055618 17.654605 6.012196 -1.607643 43.718278 19.085643 -3.652717 -125.667798 50.628432 -101.755396 -2.168870 13.422000 -4.406810 
-30.207802 109.045204 88.736877 -121.310668 1.916587 87.675603 15.032302 8.857169 -0.848847 -2.849895 9.802306 25.600159 1.072857 12.829516 -28.328165 nan nan nan -15.051719 -9.408191 -16.922107 2.713824 -12.082446 18.561900 7.103412 -0.824856 -4.291734 nan nan nan -6.631191 1.422438 0.210022 7.686069 -4.040120 9.408980 1.083364 0.230818 -4.203588 4.201861 -15.225469 13.373546 3.860634 -20.266010 12.292460 -12.081410 -8.513742 1.995904 -70.642865 -45.107260 32.615941 147.696909 -64.167120 -116.741660 0.072778 -21.767558 -8.652898 17.530175 5.817485 -2.069416 43.855113 18.967988 -3.575480 -125.859007 50.646281 -102.346628 -1.406864 13.637583 -4.584777 
-30.203411 109.046059 88.744598 -121.308137 1.924942 87.688678 15.039051 8.857669 -0.894259 -2.843880 9.799315 25.645367 1.059507 12.827094 -28.324181 nan nan nan -15.027543 -9.417397 -16.932726 2.681390 -12.079225 18.596010 7.095689 -0.875978 -4.333829 nan nan nan -6.636317 1.446068 0.198720 7.718481 -4.076189 9.346809 1.113415 0.191956 -4.135340 4.220934 -15.201197 13.386279 3.871833 -20.354237 12.270374 -11.957048 -8.526482 1.955201 -70.741056 -45.065643 32.634455 147.816580 -64.252444 -116.918379 -0.659283 -21.633241 -8.908524 17.434643 5.846150 -2.177073 44.014157 18.897511 -3.447978 -125.995464 50.580952 -102.716477 -1.037159 13.637302 -5.015073 
